<svg width="421" height="420" viewBox="0 0 421 420" fill="none" xmlns="http://www.w3.org/2000/svg">
<path d="M194.096 84.4411C154.272 84.4411 114.457 84.3811 74.6318 84.5311C70.6733 84.5411 69.1739 83.7914 69.3438 79.483C69.7037 70.5864 69.5837 61.6597 69.3838 52.7531C69.3138 49.5144 70.2835 48.5747 73.5322 48.6047C92.2051 48.7446 110.878 48.6747 129.541 48.6747C190.838 48.6747 252.145 48.6147 313.441 48.7846C318.289 48.7946 319.499 47.4151 319.379 42.7169C319.049 30.0217 319.359 17.3066 319.199 4.60139C319.159 1.37262 319.719 -0.0768381 323.437 0.0031316C334.663 0.243041 345.909 0.203064 357.145 0.043125C360.204 -0.00685606 361.083 0.902793 361.043 3.94164C360.893 17.3066 361.103 30.6715 360.883 44.0364C360.823 47.775 361.953 48.8046 365.641 48.7646C382.495 48.5747 399.349 48.7546 416.202 48.5747C419.731 48.5347 421.13 49.2045 420.99 53.103C420.671 61.8397 420.681 70.5964 420.971 79.3331C421.1 83.2816 420.291 84.631 415.962 84.5511C399.279 84.2512 382.585 84.5411 365.901 84.3511C362.123 84.3112 360.863 85.1808 360.873 89.2193C361.043 142.519 361.273 195.819 360.983 249.119C360.763 289.333 344.779 322.961 315.79 350.4C292.379 372.562 264.18 385.197 232.142 388.006C216.398 389.385 200.444 388.356 184.58 388.396C177.473 388.416 170.365 388.286 163.268 388.456C160.499 388.526 159.57 387.716 159.61 384.867C159.76 373.322 159.81 361.766 159.58 350.22C159.51 346.762 160.819 346.112 163.868 346.142C179.072 346.252 194.266 346.182 209.471 346.192C223.195 346.202 236.85 345.772 249.975 340.984C287.171 327.419 309.733 301.289 317.25 262.464C318.939 253.747 319.269 244.82 319.269 235.904C319.249 187.552 319.279 139.2 319.249 90.8487C319.249 83.5514 320.199 84.4511 313.051 84.4411C273.416 84.4211 233.751 84.4411 194.096 84.4411Z" fill="#0F0F0F"/>
<path d="M250.065 150.146C247.686 164.871 245.307 179.585 242.948 194.309C238.5 222.089 234.061 249.878 229.623 277.658C229.203 280.257 228.363 282.856 228.403 285.445C228.473 290.113 225.964 290.553 222.156 290.453C213.569 290.223 204.972 290.173 196.386 290.473C192.337 290.613 190.918 289.633 190.198 285.275C184.29 249.239 177.993 213.262 171.835 177.266C170.375 168.739 169.006 160.202 166.587 151.766C166.587 153.475 166.587 155.184 166.587 156.904C166.587 199.637 166.507 242.381 166.697 285.115C166.717 289.603 165.477 290.653 161.189 290.493C152.282 290.153 143.336 290.113 134.429 290.513C129.911 290.713 129.881 288.574 129.881 285.245C129.951 233.764 129.931 182.284 129.931 130.804C129.931 118.098 130.021 105.393 129.871 92.688C129.831 89.4592 130.381 88.0197 134.109 88.0597C151.952 88.2696 169.796 88.2596 187.639 88.1297C191.078 88.0997 192.027 89.3292 192.467 92.608C196.536 122.956 200.814 153.285 205.012 183.613C206.112 191.55 207.152 199.497 209.091 207.374C212.13 185.383 215.168 163.381 218.197 141.389C220.516 124.596 222.866 107.802 225.095 90.9886C225.375 88.8994 226.184 88.1597 228.204 88.1597C247.036 88.1997 265.869 88.2297 284.712 88.1697C287.141 88.1597 287.971 89.1293 287.771 91.3984C287.681 92.3781 287.771 93.3777 287.771 94.3673C287.771 158.063 287.751 221.749 287.861 285.445C287.871 289.123 287.231 290.653 283.093 290.503C273.856 290.173 264.58 290.183 255.343 290.503C251.435 290.633 250.775 289.243 250.785 285.725C250.895 242.161 250.855 198.598 250.855 155.044C250.855 153.445 250.855 151.846 250.855 150.246C250.595 150.196 250.335 150.166 250.065 150.146Z" fill="#0F0F0F"/>
<path d="M76.6609 273.859C70.1634 284.325 61.5766 290.373 50.3109 291.872C32.4077 294.252 14.9343 288.864 6.61749 269.881C2.24915 259.915 0.219916 249.399 0.149943 238.653C-0.0599778 204.665 -0.029988 170.668 0.119955 136.671C0.15994 127.025 2.3591 117.698 6.78742 109.052C14.4945 93.9775 27.8394 87.9198 43.8734 86.5703C50.7907 85.9905 57.7281 86.3604 64.5855 87.6998C81.649 91.0386 91.7052 101.765 96.1535 118.068C99.2923 129.574 100.232 141.389 100.262 153.305C100.272 156.074 99.4923 157.034 96.6433 157.004C85.7375 156.864 74.8316 156.894 63.9257 156.994C61.3067 157.014 60.497 156.064 60.547 153.525C60.667 147.427 60.7569 141.31 60.4671 135.212C60.0472 126.465 56.7385 123.206 49.6312 123.916C44.3932 124.446 41.7642 127.775 40.8045 132.513C40.2147 135.402 40.0248 138.411 40.0148 141.369C39.9648 172.558 39.9648 203.746 40.0048 234.934C40.0148 239.212 40.2847 243.471 41.4243 247.659C42.7038 252.387 45.4827 254.996 50.5608 254.996C55.6089 254.986 58.4078 252.497 59.7373 247.719C60.8969 243.511 60.9869 239.242 61.0768 234.974C61.2468 227.387 60.9569 219.79 61.1868 212.203C61.2967 208.644 60.3671 206.755 56.5386 207.464C51.0506 208.484 50.021 205.825 50.2509 200.937C50.6208 192.7 50.4509 184.443 50.3009 176.186C50.2509 173.447 51.0606 172.468 53.9195 172.498C68.1241 172.628 82.3388 172.628 96.5434 172.498C99.5122 172.468 100.082 173.637 100.072 176.286C100.012 212.922 100.002 249.558 100.082 286.185C100.092 289.253 99.3823 290.453 95.9836 290.473C83.6383 290.553 83.6383 290.693 78.9301 279.207C78.3103 277.698 77.6605 276.218 76.6609 273.859Z" fill="#0F0F0F"/>
<path d="M92.0051 306.554C91.0454 306.574 90.0958 306.634 89.1561 306.704C90.0558 306.534 91.0154 306.504 92.0051 306.554Z" fill="#0F0F0F"/>
<path d="M152.708 303.061C155.055 303.107 158.883 303.153 161.207 303.165L165.451 303.176V307.595V312.003L156.717 311.899C151.923 311.841 146.579 311.795 144.85 311.795H141.706L139.685 315.959C137.743 319.962 137.17 321.177 134.622 326.88L133.454 329.471V357.906V386.352L88.4112 386.329L43.3682 386.294L42.7058 384.212C42.3466 383.066 41.7515 381.169 41.3811 379.989C41.0106 378.809 40.3594 376.75 39.9328 375.42C39.5174 374.078 38.8662 372.03 38.4957 370.85C38.1252 369.671 37.1597 366.617 36.3513 364.048C34.8694 359.375 33.1853 354.007 30.4796 345.458C29.6825 342.913 28.3577 338.749 27.5493 336.204L26.0674 331.576L26.0337 328.233L26 324.89L42.8181 324.971C58.3788 325.04 77.5209 325.144 112.134 325.341L125.887 325.422L126.123 324.855C126.819 323.132 130.12 315.994 132.23 311.621C134.195 307.572 134.79 306.439 135.295 305.814C136.396 304.461 137.664 303.662 139.404 303.223C140.123 303.049 140.841 303.014 144.344 303.003C146.601 302.991 150.362 303.014 152.708 303.061Z" fill="#0F0F0F"/>
<path d="M112.291 392.032C114.144 392.171 115.828 392.68 117.579 393.628C121.43 395.711 124.091 399.632 124.708 404.144C124.865 405.347 124.776 407.73 124.529 408.91C123.294 414.648 118.814 418.974 113.212 419.83C106.273 420.895 99.8066 416.452 98.0215 409.407C97.6285 407.869 97.5275 405.185 97.7969 403.646C98.3134 400.754 99.5035 398.348 101.435 396.289C104.286 393.223 108.115 391.731 112.291 392.032Z" fill="#0F0F0F"/>
<path d="M65.9795 392.032C70.2234 392.333 74.1079 394.75 76.4768 398.568C79.0029 402.64 79.2162 408.019 77.027 412.392C73.3108 419.819 64.1046 422.283 57.4021 417.655C54.528 415.666 52.4397 412.554 51.6651 409.095C50.9241 405.786 51.4854 401.946 53.1358 399.019C55.8303 394.276 60.6242 391.662 65.9795 392.032Z" fill="#0F0F0F"/>
</svg>
